Coordinates
nRows=5
nColumns=38

# SIMM Motion File Header:
name Coordinates
datacolumns 38
datarows 5
otherdata 1
range 1.05099999999999990000 1.05499999999999990000

Units are S.I. units (second, meters, Newtons, ...)
Angles are in degrees.

endheader
time	pelvis_tilt	pelvis_list	pelvis_rotation	pelvis_tx	pelvis_ty	pelvis_tz	hip_flexion_r	hip_adduction_r	hip_rotation_r	knee_angle_r	ankle_angle_r	subtalar_angle_r	mtp_angle_r	hip_flexion_l	hip_adduction_l	hip_rotation_l	knee_angle_l	ankle_angle_l	subtalar_angle_l	mtp_angle_l	lumbar_extension	lumbar_bending	lumbar_rotation	arm_flex_r	arm_add_r	arm_rot_r	elbow_flex_r	pro_sup_r	wrist_flex_r	wrist_dev_r	arm_flex_l	arm_add_l	arm_rot_l	elbow_flex_l	pro_sup_l	wrist_flex_l	wrist_dev_l
      1.05099999999999990000	    -14.19304336992583200000	      3.60853763458481640000	     -0.66736002210793111000	      1.00083705531016350000	      0.97476616424872209000	     -0.34399072635398886000	     43.96944661194371000000	     -4.08995337387469780000	      3.45007026561597870000	    -89.93994916317642200000	      5.08042679150688410000	      0.00000000000021520663	     -0.00000000000007707768	     16.43232686762590300000	     10.16987268435463300000	      0.77709048831681837000	    -32.50204718647027800000	     20.23654324793106300000	     -0.00000000000003821603	     -0.00000000000007739301	      3.91931058423246850000	     -4.46203499737987300000	     -3.95478421413991790000	    -34.38613840197992000000	    -20.87139918781763400000	     -7.20292148448876280000	     92.49186473108436200000	    112.78188444682313000000	     -0.00000000000002588078	      0.00000000000002588178	    -25.97177207311027700000	    -10.15465821416170300000	    -13.30436657299453700000	    112.36311281849318000000	    100.68572482147250000000	     -0.00000000000007166979	     -0.00000000000008218678
      1.05200000000000000000	    -14.19671677834500500000	      3.56524391447899000000	     -0.74111480397788654000	      1.00111354075814150000	      0.97540793574886453000	     -0.34386653299356063000	     44.09269468980650000000	     -4.01352876313748030000	      3.43716065622669520000	    -89.63395051979252100000	      5.14492407807382430000	      0.00000000000021576170	     -0.00000000000007719902	     16.08161172256575700000	     10.10263903371445500000	      0.79103180585609545000	    -32.18906811021463500000	     19.95920930502145700000	     -0.00000000000003798861	     -0.00000000000007806163	      3.96837698313056510000	     -4.38662515155113650000	     -3.99648480684181170000	    -34.55692711362714700000	    -20.91034419095403200000	     -7.25171019306176310000	     92.67063689542047200000	    112.73957879350155000000	     -0.00000000000002594964	      0.00000000000002591018	    -26.02081097940300600000	    -10.13904576441253600000	    -13.32328919417611800000	    112.60184640711252000000	    100.59212714814839000000	     -0.00000000000007186674	     -0.00000000000008211393
      1.05299999999999990000	    -14.20052323549569300000	      3.52138912371855420000	     -0.81510697295771217000	      1.00139306443893840000	      0.97605499101964732000	     -0.34374114893900537000	     44.21287608311450200000	     -3.93690629216717620000	      3.42197830748287180000	    -89.32263613594464900000	      5.20873544796956980000	      0.00000000000021631447	     -0.00000000000007732070	     15.73190813870946600000	     10.03439983967524900000	      0.80277168894021900000	    -31.87593280149743400000	     19.67231054744943800000	     -0.00000000000003776957	     -0.00000000000007875460	      4.01776971413684340000	     -4.31035693601838070000	     -4.03643955482091950000	    -34.72846414468551800000	    -20.94748943820108900000	     -7.30290446467975580000	     92.84897866588667600000	    112.70036587006499000000	     -0.00000000000002601857	      0.00000000000002594106	    -26.06966998111539300000	    -10.12422458907581900000	    -13.34060259118439600000	    112.83989737094186000000	    100.50218651271631000000	     -0.00000000000007206379	     -0.00000000000008204709
      1.05400000000000000000	    -14.20447259038257900000	      3.47697409928260060000	     -0.88935812729107622000	      1.00167549215348580000	      0.97670709676361878000	     -0.34361458015246754000	     44.33001743223943700000	     -3.86008368137678510000	      3.40453902338074730000	    -89.00605003210367300000	      5.27183273259275790000	      0.00000000000021686527	     -0.00000000000007744231	     15.38331768972011000000	      9.96515271235591450000	      0.81218202033176101000	    -31.56278531714594500000	     19.37591303244560900000	     -0.00000000000003754036	     -0.00000000000007943705	      4.06747244470756810000	     -4.23322304874473070000	     -4.07461304502481260000	    -34.90074429638656300000	    -20.98283779133795000000	     -7.35646933974212120000	     93.02683675583365600000	    112.66394826616887000000	     -0.00000000000002608806	      0.00000000000002597260	    -26.11834400126845100000	    -10.11019572276393900000	    -13.35631108225437000000	    113.07724023878545000000	    100.41599918872714000000	     -0.00000000000007226106	     -0.00000000000008198637
      1.05499999999999990000	    -14.20857368260915300000	      3.43199751245552060000	     -0.96388918959649905000	      1.00196069175329510000	      0.97736402074341766000	     -0.34348683122686174000	     44.44414409161974100000	     -3.78305420753116020000	      3.38485934394996630000	    -88.68423500780603800000	      5.33418750058666280000	      0.00000000000021741800	     -0.00000000000007756547	     15.03593783770578300000	      9.89489459969540340000	      0.81914027306315396000	    -31.24976699546044000000	     19.07009589450080300000	     -0.00000000000003732302	     -0.00000000000008012292	      4.11746794385786520000	     -4.15521417345663660000	     -4.11097286526474900000	    -35.07376164250548100000	    -21.01639613247012100000	     -7.41236483515872190000	     93.20416310314071500000	    112.63002590596187000000	     -0.00000000000002615903	      0.00000000000002600380	    -26.16683020392907400000	    -10.09695914060877300000	    -13.37041964786340600000	    113.31385478416458000000	    100.33364704941485000000	     -0.00000000000007245822	     -0.00000000000008194337
